# xmcd
#
# Track frame offsets: 
#        150
#        15132
#        26356
#        41444
#        48629
#        66864
#        93746
#        106084
#        115726
#        135125
#        151357
#        169883
#        177324
#
# Disc length: 2423 seconds
#
# Revision: 3
# Processed by: cddbd v1.5.2PL0 Copyright (c) Steve Scherf et al.
# Submitted via: ExactAudioCopy v1.0b3
#
DISCID=9809750d
DTITLE=Various Artist - Back Against The Wall - CD1
DYEAR=2005
DGENRE=Progressive Rock
TTITLE0=Adrian Belew - In The Flesh?
TTITLE1=Ian Anderson - The Thin Ice
TTITLE2=Steve Morse - Another Brick In The Wall (Part 1)
TTITLE3=Billy Sherwood - The Happeist Days Of Our Lives
TTITLE4=Fee Waybill - Another Brick In The Wall (Part 2)
TTITLE5=Adrian Belew and John Wetton - Mother
TTITLE6=Steve Howe - Goodbye Blue Sky
TTITLE7=Robby Krieger - Empty Spaces
TTITLE8=Glenn Hughes - Young Lust
TTITLE9=Tommy Shaw - One Of My Turns
TTITLE10=Robby Krieger and Tommy Shaw - Don't Leave Me Now
TTITLE11=Steve Lukather - Another Brick In The Wall (Part 3)
TTITLE12=Tony Levin - Goodbye Cruel World
EXTD=YEAR: 2005
EXTT0=
EXTT1=
EXTT2=
EXTT3=
EXTT4=
EXTT5=
EXTT6=
EXTT7=
EXTT8=
EXTT9=
EXTT10=
EXTT11=
EXTT12=
PLAYORDER=
